<?xml version="1.0" encoding="utf-8"?>
<!-- Generator: Adobe Illustrator 25.2.1, SVG Export Plug-In . SVG Version: 6.00 Build 0)  -->
<svg version="1.1" id="圖層_1" xmlns="http://www.w3.org/2000/svg" xmlns:xlink="http://www.w3.org/1999/xlink" x="0px" y="0px"
	 viewBox="0 0 623.6 283.5" style="enable-background:new 0 0 623.6 283.5;" xml:space="preserve">
<style type="text/css">
	.st0{fill-rule:evenodd;clip-rule:evenodd;fill:#EC6C00;}
	.st1{fill:#EC6C00;}
</style>
<g>
	<g>
		<path class="st0" d="M367.9,120.5c1.7-0.4,2.1-0.3,3.1-1.2v-0.1c-5.3-2.9-10.5-5.8-15.8-8.7c-0.8,3.8-2.4,7.6-3.8,11.1
			c-3.4,8.7-7,16.8-11.4,24.4c-2.3,3.9-5.4,10-8.9,12.8c2.8,5.1,6.2,13.2,7.7,19.1h0.1c2.1-1.8,6.3-7.9,7.2-10.4
			c0.1-0.1,0.3-0.2,0.4-0.2c0,20-0.1,40-0.1,60c4.9-0.7,9.9-1.5,14.8-2.2v-79.7c1.9-0.2,2.2-0.9,2.9-2.1c-1.4-0.6-2.8-1.1-4.2-1.7
			C361.5,134.5,366.6,127.9,367.9,120.5z M322.8,190.7c0.6-2.2,1.2-4.5,1.8-6.7c1-5,2-10,2.9-14.9c0.6-5.5,1.2-11,1.8-16.5
			c0.6-0.5,2.5-0.2,3.6-0.1v-13.4c-5.4-0.6-10.8-1.1-16.2-1.7c-0.4-0.3-0.1-2.4,0.1-3.2c0.5-3.6,0.9-7.1,1.4-10.7
			c0.7-0.2,1.4-0.2,2-0.8c0-0.2,0.1-0.5,0.1-0.7c-4.2-1.7-8.5-3.5-12.7-5.2c-0.1,10.3-2.2,22.8-4.7,31.7c-1.1,4-1.4,8.8-3.6,12.2
			v0.2c0-0.6-0.1-1.1-0.1-1.7c-5.4-0.2-10.9-0.3-16.3-0.5V156c4.9,0.2,9.9,0.3,14.8,0.5v-11.7c1.9,0.1,3.7,0.2,5.6,0.4
			c0-3.7-0.1-7.5-0.1-11.2c-1.8-0.2-3.6-0.4-5.4-0.6v-11.7c-4.9-0.7-9.9-1.4-14.8-2.1c-0.1-4.9,0.9-2.5,2.5-5v-0.5
			c-4.8-1.1-9.7-2.2-14.5-3.3h-0.1v6.9c-5.5-0.8-11-1.5-16.5-2.3v13.1c-2.3-0.2-4.6-0.4-7-0.6c0,4.3-0.1,8.6-0.1,12.9v0.1
			c2.3,0.2,4.6,0.4,7,0.6c0,4.4,0.1,8.8,0.1,13.2c5.4,0.2,10.9,0.4,16.3,0.6l0.1,0.1v2.6c-6.2-0.2-12.4-0.3-18.5-0.5v25.2
			c4.7-0.2,9.5-0.3,14.2-0.5c-0.6,1.2-1.1,2.3-1.7,3.5c-6,0.3-12.1,0.6-18.1,1c1.2,4.9,2.3,9.9,3.5,14.8c1.3-0.1,2-0.9,2.2-1.9
			c2-0.2,3.9-0.4,5.9-0.6c-1.5,2.9-3.1,5.8-4.6,8.6c4.2,0.7,8.4,1.5,12.6,2.2c0.1-0.2,0.2-0.4,0.3-0.6c0.8,0.2,1.7,0.5,2.5,0.7
			c-2.3,2.1-14.1,5.4-18.4,5.6l-0.1,0.1c2.4,3.3,5.3,8.3,5.4,13.1c6.4-0.8,22.8-9.1,26.1-12.8c4.1,0.9,6.4,4.6,10,5.6
			c2.1-3.1,4.3-6.2,6.4-9.4c0.1-0.1,0.3-0.2,0.4-0.2c1.5,2.6,3.6,5.7,4.2,8.9c0.1,0,0.2,0.1,0.3,0.1c4-5.3,10.7-9.4,13.1-16.2h0.1
			c1.2,1.9,2.3,3.7,3.5,5.6c1.9,2.5,4.3,4.4,6.3,6.7c0.1,0,0.3,0.1,0.4,0.1c2.1-4.6,4.3-8.7,6.7-12.8
			C329.5,202.1,324.1,195.3,322.8,190.7z M282.9,130c1.2,0.1,2.3,0.2,3.5,0.4c0,0.9,0.1,1.8,0.1,2.7c-1.2-0.1-2.4-0.2-3.6-0.2V130z
			 M282.9,142.7c1.2,0.1,2.3,0.2,3.5,0.2c0,0.9,0.1,1.8,0.1,2.7c-1.2,0-2.4-0.1-3.6-0.1V142.7z M270.8,171.9c-1.9,0-3.7,0.1-5.6,0.1
			v-3.4h5.4c0,1.1,0.1,2.1,0.1,3.2v0.1H270.8z M270.7,144.7c-1.2-0.1-2.4-0.2-3.6-0.2v-2.8l0.1-0.1c1.2,0.1,2.3,0.2,3.5,0.2l0.1,0.1
			C270.8,142.8,270.7,143.7,270.7,144.7z M270.8,131.4c-1.3-0.1-2.5-0.2-3.8-0.4c0-1,0.1-1.9,0.1-2.9c1.2,0.1,2.3,0.2,3.5,0.4
			l0.1,0.1L270.8,131.4L270.8,131.4z M282.9,168.6h5.2v3.2c-1.7,0-3.4,0.1-5.2,0.1V168.6z M282.8,196.3c-0.8,1.5-1.6,3-2.4,4.5
			c-2.6-0.9-5.3-1.9-7.9-2.8c0-0.2,0.1-0.3,0.1-0.5c1.3-1.1,7.2-0.7,9.2-1.3h1L282.8,196.3L282.8,196.3z M309.3,194.9
			c-3.1,5.5-6.8,10.7-12.1,14.2c-2-1.1-4.1-2.2-6.1-3.3c0.7-1.5,1.4-3,2.1-4.5c0.8-2.3,1.6-4.5,2.4-6.8c2.4-0.4,4.8-0.7,7.3-1.1
			c0.8-0.8,0.6-8.2,0.6-10c-8.3,0.5-16.5,1.1-24.8,1.6l1-2.3c4.9-1.6,13.3-1.6,19.8-1.6v-9.4c1.8,1.3,4,4.9,4.6,7
			c0.1,0,0.2,0.1,0.3,0.1c0.8-1.7,1.7-3.3,2.5-5c0.1,0,0.2-0.1,0.3-0.1c0.9,4.4,1.9,8.8,2.8,13.2c0.5,1.5,0.9,3,1.4,4.5
			C310.5,192.7,309.9,193.8,309.3,194.9z M317.1,171.5H317c-1.5-6.3-2.7-13.2-3.1-20c1.9,0.1,3.7,0.2,5.6,0.2
			C319.2,158.6,317.4,165.2,317.1,171.5z M536.9,143.9c-0.3-1.8,5.1-12.5,6.1-15.3c0.6-1.7,1.1-3.3,1.7-5c0,0,1.7,0.3,2.8-0.7
			c0-0.1,0.1-0.2,0.1-0.4c-5.3-3-10.5-5.9-15.8-8.9c-0.8,2.6-1.7,5.1-2.5,7.7c-2.1,5.7-4.5,11.4-7.1,16.8c-3,6.1-6.4,12.3-10.5,17.6
			c-1.7,2.1-3.3,4.1-5,6.2c-0.5,0.8,1.6,3.7,2.1,4.7c1.7,3.6,5.2,10.2,5.7,14.1h0.1c3.8-2.8,5.8-8.1,8.6-11.8c0-0.1,0.1-0.2,0.1-0.2
			c0,19.3,0.1,38.6,0.1,57.8c4.8-0.7,9.6-1.4,14.4-2.1c0-25.6,0.1-51.2,0.1-76.8c1.6-0.2,2.6-0.9,2.8-2.3
			C539.6,144.9,538.3,144.4,536.9,143.9z M423,114.4c0.6,33.4,1.1,66.7,1.7,100.1c4.5-0.5,9-1.1,13.5-1.6V202
			c6-0.6,12.1-1.1,18.1-1.7c0-27.1-0.1-54.3-0.1-81.4C445.1,117.4,434.1,115.9,423,114.4z M437.5,132.8c2,0.2,3.9,0.3,5.9,0.5
			c0,6.3,0.1,12.6,0.1,18.8c-2-0.1-3.9-0.2-5.9-0.2C437.6,145.5,437.5,139.1,437.5,132.8z M438.1,186.7c-0.1-6.4-0.2-12.9-0.3-19.3
			h5.9c0,6.3,0.1,12.6,0.1,19C441.9,186.5,440,186.6,438.1,186.7z M487.6,141.8c4.7,0.3,9.4,0.6,14.1,1c0.1-4.3,0.2-8.7,0.3-13
			c-4.7-0.6-9.4-1.1-14.1-1.7c0-2.6,0.1-5.1,0.1-7.7c1.3-0.2,1.8-0.6,2.2-1.6c-0.2-0.8-11.8-3.4-13.7-3.6v11.4
			c-5.3-0.6-10.7-1.2-16-1.8v14.7c5.2,0.4,10.4,0.9,15.6,1.3c0.5,0.5,0.2,6.3,0.1,7.7c-6.1-0.4-12.2-0.7-18.3-1.1
			c0,5-0.1,10-0.1,14.9c9.3,0.1,18.6,0.2,27.9,0.4c0,2.4-0.1,4.8-0.1,7.2c-9.2,0-18.4,0.1-27.6,0.1c0,4.8-0.1,9.6-0.1,14.3
			c9.2-0.4,18.3-0.9,27.5-1.3c0,5-0.1,10-0.1,15.1c-0.3,1.7,0.5,4.3-0.3,5.6c-0.7,0.9-7.7,1.4-9.8,1.3c1,4.4,3.2,8.6,3.3,13.7
			c6.4-0.8,12.4-2.6,15.1-6.7c3.2-4.8,2.3-21.6,2.2-29.4c2.1-0.1,4.3-0.2,6.4-0.4c0.1-4.2,0.3-8.3,0.4-12.5H496
			c0-1.5,0.1-2.9,0.1-4.4c1.3-0.4,1.9-0.8,2.1-2.2c-1.7-0.1-3.4-0.2-5.2-0.2h9.6c0.1-4.3,0.2-8.6,0.3-12.9c-5.2-0.3-10.3-0.6-15.5-1
			v-7.2H487.6z M367.5,148.3c16.8,0.9,33.7,1.9,50.5,2.8v-13.9c-6-0.6-12.1-1.2-18.1-1.8v-14.7c1-0.9,1.7-0.3,2.4-1.6v-0.5
			l-14.5-3.2c0,6.2-0.1,12.5-0.1,18.7c-6.7-0.6-13.4-1.3-20.1-1.9L367.5,148.3L367.5,148.3z M586.6,189.5c-1.1-1.3-2.1-2.7-3.2-4
			v-0.2c-0.1,2.3-0.3,4.6-0.4,6.9c-0.7,3.5-0.8,7.2-1.8,10.1c-0.1,0.1-0.3,0.2-0.4,0.2c-3.2-0.4-3.9-6.2-4.6-8.9
			c-2.4-8.8-4.3-19.3-4.5-29.4c6.5-0.7,13-1.4,19.5-2.1c-0.3-4.6-0.6-9.2-0.8-13.7l-0.1-0.1c-6.6,0.4-13.1,0.8-19.7,1.2
			c-0.1-8.7-0.3-17.3-0.4-26c0.7-0.1,1.3-0.2,2-0.4c0.2-0.4,0.5-0.7,0.7-1.1v-0.6c-5.1-1.1-10.2-2.2-15.3-3.3
			c0,10.9,0.9,21.6,0.8,32.2c-5.8,0.4-11.5,0.7-17.3,1.1c0.5,5.4,0.9,10.8,1.4,16.2c5.7-0.6,11.3-1.3,17-1.9h0.1
			c0.1,5.4,0.9,11.2,2,16.2c1.9,9.2,2.9,17.9,6.3,25.5c2,4.5,4.1,10.2,10.3,10.9c1.4,0.2,3-0.4,3.9-0.7c7.1-2.4,7.6-9.9,9.1-17.1
			c0.2-2.3,0.5-4.5,0.7-6.8C590.1,192.2,588,191.1,586.6,189.5z M582.8,146.6c2.4-1.8,4.7-3.6,7.1-5.5l1.4-1.2
			c-0.5-1.2-1-2.3-1.5-3.5c-1.7-3.8-3.7-7.2-5.7-10.7c-0.8-1.3-1.5-3.4-2.8-4.3c-2.6,1.8-5.3,3.6-7.9,5.5l-0.3,0.4
			c1.3,1.3,2.1,3.3,2.9,5C578.3,136.8,581.4,141.3,582.8,146.6z M390.5,195.1c0-6.5-0.6-13-1.8-19c-0.6-4.4-1.2-8.7-1.8-13.1
			c-0.7-3.4-1.3-6.7-2-10.1h-0.7c-3.8,0.7-7.6,1.5-11.4,2.2c1.4,5.7,1.5,11.7,2.6,17.7c1.6,8.2,2.3,17.3,2.2,26.5
			C382,197.9,386.3,196.5,390.5,195.1z M398.1,184.9c-0.7,3.3-1.4,6.6-2.1,9.8c3.4,1,6.9,2,10.3,3c1.2-5.1,2.3-10.3,3.5-15.4
			c0.7-4.5,1.5-9.1,2.2-13.6c0.4-3,0.8-6,1.3-9c1.2-0.4,2-0.6,2.4-1.7c-4.5-1.6-8.9-3.2-13.4-4.9c-0.6,4.9-1.1,9.8-1.7,14.7
			C399.7,173.6,398.9,179.2,398.1,184.9z M470.1,183.9c-3.3,2.6-6.5,5.3-9.8,7.9c3.3,5.2,7.5,10.6,9.1,17.1c3.3-2.9,6.7-5.8,10-8.6
			C478.7,196.4,472.8,186.2,470.1,183.9z M365.8,219.4c17.8-2.5,35.6-4.9,53.4-7.4v-14c-17.8,1.7-35.6,3.4-53.4,5.1V219.4z"/>
	</g>
	<g>
		<path class="st0" d="M52.6,130.4h-4.1v15.7c1,0.2,2.4,0.3,4.1,0.3c5.4,0,10.2-2.1,10.2-8C62.9,132.5,57.8,130.4,52.6,130.4z
			 M61.6,120.2L61.6,120.2c0-4.6-3.4-6.6-8.7-6.6c-2.2,0-3.6,0.2-4.3,0.4v13.2h4.5C58.3,127.1,61.6,124.2,61.6,120.2z M172.4,124.1
			c-5.1,0-7.4,4.9-7.8,8.7h14.8C179.5,129,177.9,124.1,172.4,124.1z M212,128.3c0,2.4,1.6,3.5,5.2,5.1c3.4,1.4,5.7,3.1,6.6,5.6
			l-3.8-14.3c-0.9-0.3-2-0.6-3.3-0.6C213.6,124.2,212,126.1,212,128.3z M224.1,140.2c0.1,0.5,0.1,1,0.1,1.6c0,5-3.8,8.2-9.9,8.2
			c-2.8,0-5.4-0.8-7.3-1.9l1.2-3.3c1.5,0.9,3.9,1.9,6.3,1.9c3.7,0,5.6-2,5.6-4.5c0-2.6-1.5-4-5.2-5.5c-4.7-1.9-7.1-4.5-7.1-7.9
			c0-4.3,3.5-7.9,9.1-7.9c0.7,0,1.4,0.1,2,0.2l-28-104.8L8.7,65.1l35.6,132.8v-43.3h17.3L73.7,178c3.2,5.8,7.1,14.2,9.7,20.8h0.2
			c-0.8-7.6-1.4-17.8-1.4-28.6v-15.5h14.5V220h-16l-12.4-23.7c-3.3-6.2-7.3-14.8-9.9-21.5H58c0.5,7.6,0.8,17.6,0.8,29.2v16h-8.6
			l10.1,37.9l144.7-39c-7.3-3.6-7.5-12-7.5-16.2V183h-6.3v-10.4l-14.4,22.7l14.8,24.6h-18l-4.1-8.4c-1.1-2.3-2.2-4.7-3.1-7.1H166
			c-0.9,2.4-2,4.9-3,7.2l-3.7,8.4h-17.1l14.7-24l-14.5-23.6h17.8l3.9,7.9l3.3,7.3h0.3c1-2.4,2-5.1,3.1-7.5l3.5-7.7h23.1v-8.7l16-4.1
			v12.8h10.7V183h-10.7v17.9c0,5.6,1.9,7.6,5.8,7.6c1.8,0,2.8-0.1,4.2-0.4v5.9l19-5.1L224.1,140.2z M64.2,146
			c-2.6,2.6-6.8,3.7-12.7,3.7c-3.2,0-5.6-0.3-7.2-0.4V111c2.1-0.5,5.2-0.8,8.4-0.8c4.8,0,8,0.9,10.3,2.9c1.8,1.6,2.9,3.8,2.9,6.7
			c0,3.8-2.6,7.2-6.6,8.6v0.2c3.7,0.9,8,3.9,8,9.8C67.3,141.8,66,144.3,64.2,146z M90.7,149.4l-0.2-4.4h-0.2c-1.3,2.2-4.1,5-8.9,5
			c-4.2,0-9.1-2.4-9.1-12v-16.5h4.2v15.7c0,5.4,1.6,9.2,6.2,9.2c3.3,0,7.3-2.7,7.3-7.6v-17.3h4.2V142c0,2.9,0.2,5.3,0.3,7.4H90.7z
			 M124,110.9c1.7,0,2.8,1.3,2.8,2.9c0,1.8-1.2,2.9-2.8,2.9c-1.6,0-2.8-1.3-2.8-2.9C121.1,112.2,122.3,110.9,124,110.9z
			 M126.1,121.6v27.8h-4.2v-27.8C121.9,121.6,126.1,121.6,126.1,121.6z M107.3,136.7c-4.7-1.9-7.1-4.5-7.1-7.9
			c0-4.3,3.5-7.9,9.1-7.9c2.7,0,4.9,0.8,6.4,1.7l-1.2,3.2c-1-0.7-2.9-1.6-5.4-1.6c-3.1,0-4.7,1.9-4.7,4.1c0,2.4,1.6,3.5,5.2,5.1
			c4.5,1.8,7.1,4.2,7.1,8.4c0,5-3.8,8.2-9.9,8.2c-2.8,0-5.4-0.8-7.3-1.9l1.2-3.3c1.5,0.9,3.9,1.9,6.3,1.9c3.7,0,5.6-2,5.6-4.5
			C112.5,139.6,111,138.2,107.3,136.7z M143.5,195.1c0,2.3-0.1,4.6-0.5,6.2h-29.2c0.4,5.7,5.9,8.3,12.6,8.3c4.7,0,8.7-0.8,12.4-1.9
			l2.1,10.3c-4.8,1.8-10.9,2.6-17.1,2.6c-16.3,0-25.4-9-25.4-23.8c0-13.6,8.6-25.5,24.1-25.5C134.7,171.4,143.5,179,143.5,195.1z
			 M155.5,149.4h-4.2V133c0-4.5-1.6-8.5-6.5-8.5c-3.6,0-7.3,3.1-7.3,7.9v17.1h-4.2v-20.7c0-2.9-0.1-5-0.2-7.2h3.8l0.3,4.5h0.1
			c1.4-2.7,4.6-5.2,8.9-5.2c3.5,0,9.4,2.1,9.4,11.5v17H155.5z M183.5,136h-19c0.1,7.7,4.4,10.6,9.5,10.6c3.5,0,5.6-0.7,7.3-1.4
			l0.8,3.1c-1.6,0.8-4.5,1.7-8.7,1.7c-8.1,0-13-5.7-13-14c0-8.7,4.9-15,12.4-15c8.6,0,10.8,7.9,10.8,12.7
			C183.6,134.6,183.6,135.3,183.5,136z M194,150c-2.8,0-5.4-0.8-7.3-1.9l1.2-3.3c1.5,0.9,3.9,1.9,6.3,1.9c3.7,0,5.6-2,5.6-4.5
			c0-2.6-1.5-4-5.2-5.5c-4.7-1.9-7.1-4.5-7.1-7.9c0-4.3,3.5-7.9,9.1-7.9c2.7,0,4.9,0.8,6.4,1.7l-1.2,3.2c-1-0.7-2.9-1.6-5.4-1.6
			c-3.1,0-4.7,1.9-4.7,4.1c0,2.4,1.6,3.5,5.2,5.1c4.5,1.8,7.1,4.2,7.1,8.4C203.9,146.7,200.1,150,194,150z M121.6,181.6
			c-5.5,0-7.6,5.6-7.9,9.5h15C128.7,186.9,127.2,181.6,121.6,181.6z"/>
		<g>
			<path class="st1" d="M65.2,266l1.9,3.3c0.4,0.7,0.8,1.4,1.1,2.1l0,0c0-0.8,0-1.6,0-2.4l0.2-3.9l1.1-0.3l2,3.2
				c0.5,0.8,0.9,1.4,1.2,2.1l0,0c-0.1-0.7-0.1-1.5-0.1-2.4l0.1-3.8l1.3-0.3l-0.4,7.6l-1.2,0.3l-2-3.1c-0.5-0.7-0.8-1.4-1.2-2.1l0,0
				c0.1,0.9,0,1.7,0,2.5l-0.2,3.6l-1.2,0.3l-4-6.4L65.2,266z"/>
			<path class="st1" d="M75.7,263.2l1.9,3.3c0.4,0.7,0.8,1.4,1.1,2.1l0,0c0-0.8,0-1.6,0-2.4l0.2-3.9L80,262l2,3.2
				c0.5,0.8,0.9,1.4,1.2,2.1l0,0c-0.1-0.7-0.1-1.5-0.1-2.4l0.1-3.8l1.3-0.3l-0.4,7.6l-1.2,0.3l-2-3.1c-0.5-0.7-0.8-1.4-1.2-2.1l0,0
				c0.1,0.9,0,1.7,0,2.5l-0.2,3.6l-1.2,0.3l-4-6.4L75.7,263.2z"/>
			<path class="st1" d="M86.1,260.4l1.9,3.3c0.4,0.7,0.8,1.4,1.1,2.1l0,0c0-0.8,0-1.6,0-2.4l0.2-3.9l1.1-0.3l2,3.2
				c0.5,0.8,0.9,1.5,1.2,2.1l0,0c-0.1-0.7-0.1-1.5-0.1-2.4l0.1-3.8L95,258l-0.4,7.6l-1.2,0.3l-2-3.1c-0.5-0.7-0.8-1.4-1.2-2.1l0,0
				c0.1,0.9,0,1.7,0,2.5l-0.2,3.6l-1.2,0.3l-4-6.4L86.1,260.4z"/>
			<path class="st1" d="M97.8,264.9c-0.5,0.1-0.9-0.2-1.1-0.7c-0.1-0.5,0.1-1,0.6-1.1s1,0.1,1.1,0.7
				C98.6,264.3,98.3,264.7,97.8,264.9L97.8,264.9z"/>
			<path class="st1" d="M97.1,253.9l1.3-0.3l1.2,4.4l0,0c0.2-0.9,0.9-1.6,2-1.9c1.7-0.5,3.3,0.6,3.9,2.8c0.7,2.5-0.6,4.2-2.1,4.6
				c-1,0.3-1.9,0.1-2.7-0.7l0,0l0.3,1.2l-1.1,0.3c-0.1-0.5-0.3-1.2-0.4-1.8L97.1,253.9z M100.4,261c0,0.2,0.1,0.3,0.2,0.4
				c0.5,0.8,1.4,1.2,2.3,1c1.3-0.4,1.8-1.7,1.4-3.3c-0.4-1.4-1.4-2.4-2.8-2c-0.9,0.2-1.5,1-1.5,2.1c0,0.2,0,0.3,0.1,0.5L100.4,261z"
				/>
			<path class="st1" d="M106.3,257c-0.2-0.7-0.4-1.3-0.6-1.9l1.1-0.3l0.4,1.1l0,0c0.2-0.8,0.8-1.6,2-1.9c1-0.3,2.6-0.1,3.3,2.3
				l1.1,4.2l-1.3,0.3l-1.1-4c-0.3-1.1-1-2-2.2-1.6c-0.8,0.2-1.3,1-1.4,1.8c0,0.2,0,0.4,0.1,0.6l1.1,4.2l-1.3,0.3L106.3,257z"/>
			<path class="st1" d="M115.2,256.6c0.5,1.7,1.8,2.1,3,1.8c0.9-0.2,1.4-0.6,1.8-0.9l0.5,0.9c-0.4,0.3-1.1,0.8-2.2,1.1
				c-2.2,0.6-3.8-0.5-4.4-2.6s0.2-4.1,2.3-4.6c2.3-0.6,3.4,1.2,3.8,2.5c0.1,0.3,0.1,0.5,0.1,0.6L115.2,256.6z M118.7,254.6
				c-0.2-0.8-0.9-2-2.3-1.6c-1.3,0.3-1.5,1.7-1.4,2.6L118.7,254.6z"/>
			<path class="st1" d="M120.9,251l1.4,1.2c0.4,0.3,0.7,0.6,1,1l0,0c0.1-0.5,0.3-0.9,0.4-1.3l0.6-1.8l1.4-0.4l-1.5,4l3.4,3l-1.4,0.4
				l-1.4-1.3c-0.4-0.3-0.7-0.7-1.1-1l0,0c-0.1,0.5-0.3,0.9-0.4,1.4l-0.6,1.8l-1.4,0.4l1.5-4.2l-3.3-2.8L120.9,251z"/>
			<path class="st1" d="M127.9,247.4l0.4,1.7l1.8-0.5l0.3,1l-1.8,0.5l1,3.8c0.2,0.9,0.6,1.3,1.3,1.1c0.3-0.1,0.5-0.2,0.7-0.3
				l0.3,0.9c-0.2,0.2-0.6,0.4-1.1,0.5c-0.6,0.2-1.1,0.1-1.5-0.2c-0.5-0.3-0.8-0.9-1-1.7l-1-3.8l-1.1,0.3l-0.3-1l1.1-0.3l-0.3-1.3
				L127.9,247.4z"/>
			<path class="st1" d="M133.7,255.3c-0.5,0.1-0.9-0.2-1.1-0.7c-0.1-0.5,0.1-1,0.6-1.1s1,0.1,1.1,0.7
				C134.5,254.7,134.2,255.1,133.7,255.3L133.7,255.3z"/>
			<path class="st1" d="M140.7,253c-0.3,0.3-1,0.7-1.9,1c-2.1,0.6-3.9-0.5-4.4-2.7c-0.6-2.2,0.5-4.1,2.8-4.7
				c0.8-0.2,1.5-0.2,1.9-0.1v1.1c-0.3-0.1-0.9-0.1-1.6,0.1c-1.6,0.4-2.2,1.8-1.8,3.3c0.4,1.6,1.7,2.3,3.1,2c0.7-0.2,1.1-0.5,1.5-0.8
				L140.7,253z"/>
			<path class="st1" d="M147.1,247.7c0.7,2.6-0.8,4.2-2.5,4.6c-1.9,0.5-3.7-0.5-4.3-2.7c-0.6-2.3,0.5-4.1,2.5-4.6
				S146.6,245.6,147.1,247.7z M141.6,249.3c0.4,1.5,1.6,2.5,2.8,2.1c1.2-0.3,1.8-1.7,1.4-3.3c-0.3-1.2-1.3-2.5-2.8-2.1
				S141.3,247.9,141.6,249.3z"/>
			<path class="st1" d="M148,245.8c-0.2-0.7-0.4-1.3-0.6-1.9l1.1-0.3l0.4,1.1l0,0c0.2-0.8,0.7-1.6,1.9-1.9c1-0.3,1.8,0.1,2.4,0.9
				l0,0c0.1-0.4,0.3-0.8,0.5-1.1c0.3-0.4,0.8-0.7,1.4-0.9c0.9-0.2,2.5,0,3.1,2.4l1.1,4.1l-1.2,0.3l-1.1-4c-0.4-1.3-1.1-2-2.1-1.7
				c-0.7,0.2-1.1,0.9-1.2,1.6c0,0.2,0,0.4,0.1,0.7l1.2,4.3l-1.2,0.3l-1.1-4.2c-0.3-1.1-1-1.8-2-1.5c-0.8,0.2-1.2,1-1.2,1.7
				c0,0.2,0,0.4,0.1,0.6l1.1,4.2l-1.2,0.3L148,245.8z"/>
			<path class="st1" d="M161.6,247.8c-0.5,0.1-0.9-0.2-1.1-0.7c-0.1-0.5,0.1-1,0.6-1.1s1,0.1,1.1,0.7
				C162.4,247.2,162.2,247.6,161.6,247.8L161.6,247.8z"/>
			<path class="st1" d="M162.9,238l0.4,1.7l1.8-0.5l0.3,1l-1.8,0.5l1,3.8c0.2,0.9,0.6,1.3,1.3,1.1c0.3-0.1,0.5-0.2,0.7-0.3l0.3,0.9
				c-0.2,0.2-0.6,0.4-1.1,0.5c-0.6,0.2-1.1,0.1-1.5-0.2c-0.5-0.3-0.8-0.9-1-1.7l-1-3.8l-1.1,0.3l-0.3-1l1.1-0.3l-0.3-1.3L162.9,238z
				"/>
			<path class="st1" d="M166.9,238.7l1.9,3.3c0.4,0.7,0.8,1.4,1.1,2.1l0,0c0-0.8,0-1.6,0-2.4l0.2-3.9l1.1-0.3l2,3.2
				c0.5,0.8,0.9,1.4,1.2,2.1l0,0c-0.1-0.7-0.1-1.5-0.1-2.4l0.1-3.8l1.3-0.3l-0.4,7.6l-1.2,0.3l-2-3.1c-0.5-0.7-0.8-1.4-1.2-2.1l0,0
				c0.1,0.9,0,1.7,0,2.5l-0.2,3.6l-1.2,0.3l-4-6.4L166.9,238.7z"/>
		</g>
	</g>
</g>
</svg>
