<?xml version="1.0" encoding="utf-8"?>
<!-- Generator: Adobe Illustrator 25.2.1, SVG Export Plug-In . SVG Version: 6.00 Build 0)  -->
<svg version="1.1" id="圖層_1" xmlns="http://www.w3.org/2000/svg" xmlns:xlink="http://www.w3.org/1999/xlink" x="0px" y="0px"
	 viewBox="0 0 30 565" style="enable-background:new 0 0 30 565;" xml:space="preserve">
<g>
	<path d="M4.7,14.9l4.2,3.4c-1.5,1.8-2.6,4.1-2.6,6.2c0,2.2,0.9,3.3,2.2,3.3c1.5,0,1.9-1.4,2.9-3.6l1.4-3.2c1.1-2.7,3.3-5.1,6.9-5.1
		c4.2,0,7.6,3.8,7.6,9.2c0,2.9-1.1,6-3.3,8.2l-3.8-3c1.3-1.7,1.9-3.2,1.9-5.2c0-1.9-0.7-3-2.1-3c-1.4,0-1.9,1.6-2.8,3.8L15.9,29
		c-1.3,3.1-3.4,5-6.9,5c-4.2,0-7.9-3.5-7.9-9.7C1.1,21.1,2.3,17.5,4.7,14.9z"/>
	<path d="M26.8,38.2v16h-5v-10h-4.7v8.5H12v-8.5H6.6v10.3H1.5V38.2H26.8z"/>
	<path d="M7.4,71.6v-7.5l-5.8-1.5v-6.2l25.3,7.9v7.3L1.5,79.5v-6.4L7.4,71.6z M12,70.4l2.1-0.5c2.5-0.7,5.5-1.3,8.1-2v-0.1
		c-2.7-0.6-5.6-1.3-8.1-1.9L12,65.3V70.4z"/>
	<path d="M1.5,95.8l8.9-4.7v-2.9H1.5v-6.1h25.3v9.3c0,5.4-1.8,9.9-8,9.9c-3.7,0-6.1-1.7-7.3-4.4l-10,5.6V95.8z M15.2,88.2v2.7
		c0,2.9,1.3,4.4,3.6,4.4s3.2-1.5,3.2-4.4v-2.7H15.2z"/>
	<path d="M14.1,105c8.4,0,13.3,5.6,13.3,12.1c0,3.3-1.5,5.9-3.3,7.7l-3.9-3.2c1.2-1.3,2-2.6,2-4.4c0-3.3-2.9-5.9-7.9-5.9
		c-5,0-8,2.3-8,5.9c0,2,1,3.6,2.3,4.8l-3.8,3.2c-2.5-2.1-3.7-5-3.7-8.3C1.1,110.5,5.5,105,14.1,105z"/>
	<path d="M26.8,128.9v6.1h-9.6v8.3h9.6v6H1.5v-6h10.4v-8.3H1.5v-6.1H26.8z"/>
	<path d="M26.8,163v16h-5v-10h-4.7v8.5H12V169H6.6v10.3H1.5V163H26.8z"/>
	<path d="M26.8,184.4v6.2l-12.1,6.3l-5.6,2.5v0.2c2.7-0.3,6.3-0.8,9.3-0.8h8.4v5.8H1.5v-6.2l12.2-6.3l5.5-2.5v-0.2
		c-2.8,0.3-6.3,0.8-9.3,0.8H1.5v-5.8H26.8z"/>
	<path d="M14.1,209.2c8.4,0,13.3,5.7,13.3,12.4c0,3.7-1.6,6.4-3.3,8.1l-3.9-3.2c1.1-1.2,2-2.5,2-4.7c0-3.7-2.9-6.4-7.9-6.4
		c-5,0-8,2.2-8,6.9c0,0.9,0.2,1.9,0.6,2.4H11v-4h5v9.4H4.2c-1.7-1.8-3.1-4.9-3.1-8.4C1.1,214.7,5.5,209.2,14.1,209.2z"/>
	<path d="M26.8,235.3v6.1H1.5v-6.1H26.8z"/>
	<path d="M26.8,247.2v6.2l-12.1,6.3l-5.6,2.5v0.2c2.7-0.3,6.3-0.8,9.3-0.8h8.4v5.8H1.5v-6.2l12.2-6.3l5.5-2.5v-0.2
		c-2.8,0.3-6.3,0.8-9.3,0.8H1.5v-5.8H26.8z"/>
	<path d="M26.8,273.1v16h-5v-10h-4.7v8.5H12v-8.5H6.6v10.3H1.5v-16.4H26.8z"/>
	<path d="M14.3,301.2c8.3,0,13,4.7,13,11.6s-4.7,11.6-13,11.6c-8.3,0-13.3-4.7-13.3-11.6S6,301.2,14.3,301.2z M14.3,318.2
		c4.9,0,7.8-2.1,7.8-5.4c0-3.3-2.9-5.4-7.8-5.4c-4.9,0-8,2-8,5.4C6.3,316.1,9.4,318.2,14.3,318.2z"/>
	<path d="M26.8,329.1v8.9c0,5.6-2,10.2-8.2,10.2c-6,0-8.7-4.7-8.7-10v-3H1.5v-6.1H26.8z M14.7,337.8c0,3,1.4,4.4,3.9,4.4
		c2.5,0,3.4-1.6,3.4-4.6v-2.5h-7.3V337.8z"/>
	<path d="M21.8,356.8V350h5v19.8h-5v-6.9H1.5v-6.1H21.8z"/>
	<path d="M26.8,373.7v6.1H1.5v-6.1H26.8z"/>
	<path d="M26.8,385.6v6.6l-10.9,4c-1.5,0.5-3.1,0.9-4.6,1.4v0.2c1.6,0.5,3.2,0.9,4.6,1.4l10.9,3.9v6.6H1.5V404h8.7
		c2.5,0,6.3,0.5,8.8,0.8v-0.1l-6.1-2.1l-9.2-3.4v-3.3l9.2-3.4l6.1-2v-0.1c-2.5,0.3-6.3,0.8-8.8,0.8H1.5v-5.4H26.8z"/>
	<path d="M26.8,415.4v6.1H1.5v-6.1H26.8z"/>
	<path d="M5.2,425.7l16.6,10.9v-9.9h5v17.3h-3.6L6.6,433.2v11H1.5v-18.5H5.2z"/>
	<path d="M7.4,460.3v-7.5l-5.8-1.5v-6.2l25.3,7.9v7.3l-25.3,7.9v-6.4L7.4,460.3z M12,459.1l2.1-0.5c2.5-0.7,5.5-1.3,8.1-2v-0.1
		c-2.7-0.6-5.6-1.3-8.1-1.9L12,454V459.1z"/>
	<path d="M21.8,472.8v-6.8h5v19.8h-5v-6.9H1.5v-6.1H21.8z"/>
	<path d="M26.8,489.6v6.1H1.5v-6.1H26.8z"/>
	<path d="M14.3,500.4c8.3,0,13,4.7,13,11.6s-4.7,11.6-13,11.6c-8.3,0-13.3-4.7-13.3-11.6S6,500.4,14.3,500.4z M14.3,517.4
		c4.9,0,7.8-2.1,7.8-5.4c0-3.3-2.9-5.4-7.8-5.4c-4.9,0-8,2-8,5.4C6.3,515.3,9.4,517.4,14.3,517.4z"/>
	<path d="M26.8,528.2v6.2l-12.1,6.3l-5.6,2.5v0.2c2.7-0.3,6.3-0.8,9.3-0.8h8.4v5.8H1.5v-6.2l12.2-6.3l5.5-2.5v-0.2
		c-2.8,0.3-6.3,0.8-9.3,0.8H1.5v-5.8H26.8z"/>
</g>
</svg>
