<?xml version="1.0" encoding="utf-8"?>
<!-- Generator: Adobe Illustrator 25.2.1, SVG Export Plug-In . SVG Version: 6.00 Build 0)  -->
<svg version="1.1" id="圖層_1" xmlns="http://www.w3.org/2000/svg" xmlns:xlink="http://www.w3.org/1999/xlink" x="0px" y="0px"
	 viewBox="0 0 909 268" style="enable-background:new 0 0 909 268;" xml:space="preserve">
<style type="text/css">
	.st0{opacity:0.5;}
	.st1{fill:#06100E;}
	.st2{fill:none;stroke:#06AED5;stroke-width:0.75;}
</style>
<g class="st0">
	<g>
		<path class="st1" d="M7.5,104.8l11.2-13.7c5.9,5,13.6,8.4,20.1,8.4c7.3,0,10.8-2.8,10.8-7.2c0-4.8-4.6-6.3-11.7-9.3l-10.6-4.4
			c-8.7-3.4-16.8-10.7-16.8-22.7c0-13.9,12.4-25,30-25c9.6,0,19.7,3.7,26.9,10.9l-9.9,12.4c-5.4-4.1-10.6-6.3-17-6.3
			c-6.1,0-9.9,2.4-9.9,6.9c0,4.6,5.2,6.3,12.6,9.2l10.3,4.1C63.8,72.3,70,79.2,70,90.8c0,13.8-11.6,25.9-31.6,25.9
			C27.6,116.7,16.1,112.7,7.5,104.8z"/>
		<path class="st1" d="M83.7,32.5h52.4v16.4h-32.6v15.3h27.7v16.7h-27.7v17.6h33.8v16.7H83.7V32.5z"/>
		<path class="st1" d="M192.7,96.2h-24.4l-4.8,19h-20.2l25.7-82.7h23.8l25.7,82.7h-20.9L192.7,96.2z M188.9,80.8l-1.8-7
			c-2.2-8.2-4.3-18.1-6.6-26.6h-0.4c-2,8.7-4.2,18.3-6.3,26.6l-1.8,7H188.9z"/>
		<path class="st1" d="M271.7,115.2L256.5,86h-9.6v29.1h-19.9V32.5h30.3c17.7,0,32.3,6,32.3,26c0,12.1-5.7,19.9-14.2,23.9l18.4,32.8
			H271.7z M246.9,70.4h8.9c9.4,0,14.4-4.1,14.4-11.9s-5-10.3-14.4-10.3h-8.9V70.4z"/>
		<path class="st1" d="M301.9,74.3c0-27.6,18.4-43.3,39.4-43.3c10.8,0,19.4,5,25.1,10.8L356,54.4c-4.1-3.8-8.4-6.4-14.3-6.4
			c-10.7,0-19.4,9.6-19.4,25.7c0,16.4,7.6,26,19.2,26c6.6,0,11.9-3.3,15.8-7.6l10.4,12.4c-7,8.1-16.2,12.2-27,12.2
			C319.7,116.7,301.9,102.3,301.9,74.3z"/>
		<path class="st1" d="M379.8,32.5h19.9v31.4h27.2V32.5h19.7v82.7h-19.7v-34h-27.2v34h-19.9V32.5z"/>
		<path class="st1" d="M491.3,32.5h52.4v16.4h-32.6v15.3h27.7v16.7h-27.7v17.6h33.8v16.7h-53.7V32.5z"/>
		<path class="st1" d="M561.2,32.5h20.2L602,72l8.1,18.3h0.6c-1.1-8.8-2.7-20.7-2.7-30.6V32.5h18.9v82.7h-20.2l-20.4-39.9l-8.1-18.1
			h-0.6c0.9,9.2,2.6,20.6,2.6,30.6v27.4h-18.9V32.5z"/>
		<path class="st1" d="M642.4,74.3c0-27.6,18.6-43.3,40.7-43.3c12.1,0,20.8,5.1,26.4,10.8l-10.6,12.7c-4-3.7-8.3-6.4-15.2-6.4
			c-12.2,0-21,9.6-21,25.7c0,16.4,7.3,26,22.7,26c3,0,6.1-0.8,7.9-2.1V84.2h-13.1V67.9h30.8v38.7c-5.8,5.6-16,10.1-27.6,10.1
			C660.4,116.7,642.4,102.3,642.4,74.3z"/>
		<path class="st1" d="M727.6,32.5h19.9v82.7h-19.9V32.5z"/>
		<path class="st1" d="M766.5,32.5h20.2L807.2,72l8.1,18.3h0.6c-1.1-8.8-2.7-20.7-2.7-30.6V32.5h18.9v82.7h-20.2l-20.4-39.9
			l-8.1-18.1h-0.6c0.9,9.2,2.6,20.6,2.6,30.6v27.4h-18.9V32.5z"/>
		<path class="st1" d="M851.3,32.5h52.4v16.4h-32.6v15.3h27.7v16.7h-27.7v17.6H905v16.7h-53.7V32.5z"/>
	</g>
</g>
<g class="st0">
	<g>
		<path class="st1" d="M7.5,202.7c0-27.1,15.3-42.4,37.9-42.4c22.6,0,37.9,15.4,37.9,42.4c0,27.1-15.3,43.3-37.9,43.3
			C22.8,246,7.5,229.8,7.5,202.7z M63.1,202.7c0-16-6.8-25.4-17.7-25.4c-10.9,0-17.6,9.4-17.6,25.4c0,16.1,6.7,26.2,17.6,26.2
			C56.3,228.9,63.1,218.8,63.1,202.7z"/>
		<path class="st1" d="M89.6,161.8h29c18.2,0,33.2,6.4,33.2,26.9c0,19.7-15.2,28.3-32.7,28.3h-9.7v27.4H89.6V161.8z M118.2,201.4
			c9.7,0,14.3-4.6,14.3-12.7c0-8.3-5.3-11.2-14.9-11.2h-8.1v23.9H118.2z"/>
		<path class="st1" d="M186,178.2h-22.3v-16.4h64.7v16.4h-22.4v66.2H186V178.2z"/>
		<path class="st1" d="M261.4,161.8h19.9v82.7h-19.9V161.8z"/>
		<path class="st1" d="M307.4,161.8h21.4l13.1,35.7c1.7,4.8,3,10,4.6,15.1h0.6c1.7-5.1,3-10.3,4.6-15.1l12.7-35.7h21.6v82.7h-18.1
			v-28.3c0-8.2,1.6-20.6,2.6-28.7h-0.4l-6.9,19.8l-11.1,30.2H341l-11.2-30.2l-6.7-19.8h-0.4c1,8.1,2.6,20.4,2.6,28.7v28.3h-17.8
			V161.8z"/>
		<path class="st1" d="M412,161.8h19.9v82.7H412V161.8z"/>
		<path class="st1" d="M467.1,232.5l35.7-54.2h-32.2v-16.4h56.7v11.9l-35.7,54.1h36v16.7h-60.4V232.5z"/>
		<path class="st1" d="M584.5,225.5H560l-4.8,19H535l25.7-82.7h23.8l25.7,82.7h-20.9L584.5,225.5z M580.7,210.1l-1.8-7
			c-2.2-8.2-4.3-18.1-6.6-26.6h-0.4c-2,8.7-4.2,18.3-6.3,26.6l-1.8,7H580.7z"/>
		<path class="st1" d="M637.9,178.2h-22.3v-16.4h64.7v16.4h-22.4v66.2h-19.9V178.2z"/>
		<path class="st1" d="M713.3,161.8h19.9v82.7h-19.9V161.8z"/>
		<path class="st1" d="M760.6,202.7c0-27.1,15.3-42.4,37.9-42.4c22.6,0,37.9,15.4,37.9,42.4c0,27.1-15.3,43.3-37.9,43.3
			C776,246,760.6,229.8,760.6,202.7z M816.2,202.7c0-16-6.8-25.4-17.7-25.4c-10.9,0-17.6,9.4-17.6,25.4c0,16.1,6.7,26.2,17.6,26.2
			C809.4,228.9,816.2,218.8,816.2,202.7z"/>
		<path class="st1" d="M841,161.8h20.2l20.6,39.6l8.1,18.3h0.6c-1.1-8.8-2.7-20.7-2.7-30.6v-27.3h18.9v82.7h-20.2L866,204.6
			l-8.1-18.1h-0.6c0.9,9.2,2.6,20.6,2.6,30.6v27.4H841V161.8z"/>
	</g>
</g>
<g>
	<g>
		<path class="st2" d="M7.5,104.8l11.2-13.7c5.9,5,13.6,8.4,20.1,8.4c7.3,0,10.8-2.8,10.8-7.2c0-4.8-4.6-6.3-11.7-9.3l-10.6-4.4
			c-8.7-3.4-16.8-10.7-16.8-22.7c0-13.9,12.4-25,30-25c9.6,0,19.7,3.7,26.9,10.9l-9.9,12.4c-5.4-4.1-10.6-6.3-17-6.3
			c-6.1,0-9.9,2.4-9.9,6.9c0,4.6,5.2,6.3,12.6,9.2l10.3,4.1C63.8,72.3,70,79.2,70,90.8c0,13.8-11.6,25.9-31.6,25.9
			C27.6,116.7,16.1,112.7,7.5,104.8z"/>
		<path class="st2" d="M83.7,32.5h52.4v16.4h-32.6v15.3h27.7v16.7h-27.7v17.6h33.8v16.7H83.7V32.5z"/>
		<path class="st2" d="M192.7,96.2h-24.4l-4.8,19h-20.2l25.7-82.7h23.8l25.7,82.7h-20.9L192.7,96.2z M188.9,80.8l-1.8-7
			c-2.2-8.2-4.3-18.1-6.6-26.6h-0.4c-2,8.7-4.2,18.3-6.3,26.6l-1.8,7H188.9z"/>
		<path class="st2" d="M271.7,115.2L256.5,86h-9.6v29.1h-19.9V32.5h30.3c17.7,0,32.3,6,32.3,26c0,12.1-5.7,19.9-14.2,23.9l18.4,32.8
			H271.7z M246.9,70.4h8.9c9.4,0,14.4-4.1,14.4-11.9s-5-10.3-14.4-10.3h-8.9V70.4z"/>
		<path class="st2" d="M301.9,74.3c0-27.6,18.4-43.3,39.4-43.3c10.8,0,19.4,5,25.1,10.8L356,54.4c-4.1-3.8-8.4-6.4-14.3-6.4
			c-10.7,0-19.4,9.6-19.4,25.7c0,16.4,7.6,26,19.2,26c6.6,0,11.9-3.3,15.8-7.6l10.4,12.4c-7,8.1-16.2,12.2-27,12.2
			C319.7,116.7,301.9,102.3,301.9,74.3z"/>
		<path class="st2" d="M379.8,32.5h19.9v31.4h27.2V32.5h19.7v82.7h-19.7v-34h-27.2v34h-19.9V32.5z"/>
		<path class="st2" d="M491.3,32.5h52.4v16.4h-32.6v15.3h27.7v16.7h-27.7v17.6h33.8v16.7h-53.7V32.5z"/>
		<path class="st2" d="M561.2,32.5h20.2L602,72l8.1,18.3h0.6c-1.1-8.8-2.7-20.7-2.7-30.6V32.5h18.9v82.7h-20.2l-20.4-39.9l-8.1-18.1
			h-0.6c0.9,9.2,2.6,20.6,2.6,30.6v27.4h-18.9V32.5z"/>
		<path class="st2" d="M642.4,74.3c0-27.6,18.6-43.3,40.7-43.3c12.1,0,20.8,5.1,26.4,10.8l-10.6,12.7c-4-3.7-8.3-6.4-15.2-6.4
			c-12.2,0-21,9.6-21,25.7c0,16.4,7.3,26,22.7,26c3,0,6.1-0.8,7.9-2.1V84.2h-13.1V67.9h30.8v38.7c-5.8,5.6-16,10.1-27.6,10.1
			C660.4,116.7,642.4,102.3,642.4,74.3z"/>
		<path class="st2" d="M727.6,32.5h19.9v82.7h-19.9V32.5z"/>
		<path class="st2" d="M766.5,32.5h20.2L807.2,72l8.1,18.3h0.6c-1.1-8.8-2.7-20.7-2.7-30.6V32.5h18.9v82.7h-20.2l-20.4-39.9
			l-8.1-18.1h-0.6c0.9,9.2,2.6,20.6,2.6,30.6v27.4h-18.9V32.5z"/>
		<path class="st2" d="M851.3,32.5h52.4v16.4h-32.6v15.3h27.7v16.7h-27.7v17.6H905v16.7h-53.7V32.5z"/>
	</g>
</g>
<g>
	<g>
		<path class="st2" d="M7.5,202.7c0-27.1,15.3-42.4,37.9-42.4c22.6,0,37.9,15.4,37.9,42.4c0,27.1-15.3,43.3-37.9,43.3
			C22.8,246,7.5,229.8,7.5,202.7z M63.1,202.7c0-16-6.8-25.4-17.7-25.4c-10.9,0-17.6,9.4-17.6,25.4c0,16.1,6.7,26.2,17.6,26.2
			C56.3,228.9,63.1,218.8,63.1,202.7z"/>
		<path class="st2" d="M89.6,161.8h29c18.2,0,33.2,6.4,33.2,26.9c0,19.7-15.2,28.3-32.7,28.3h-9.7v27.4H89.6V161.8z M118.2,201.4
			c9.7,0,14.3-4.6,14.3-12.7c0-8.3-5.3-11.2-14.9-11.2h-8.1v23.9H118.2z"/>
		<path class="st2" d="M186,178.2h-22.3v-16.4h64.7v16.4h-22.4v66.2H186V178.2z"/>
		<path class="st2" d="M261.4,161.8h19.9v82.7h-19.9V161.8z"/>
		<path class="st2" d="M307.4,161.8h21.4l13.1,35.7c1.7,4.8,3,10,4.6,15.1h0.6c1.7-5.1,3-10.3,4.6-15.1l12.7-35.7h21.6v82.7h-18.1
			v-28.3c0-8.2,1.6-20.6,2.6-28.7h-0.4l-6.9,19.8l-11.1,30.2H341l-11.2-30.2l-6.7-19.8h-0.4c1,8.1,2.6,20.4,2.6,28.7v28.3h-17.8
			V161.8z"/>
		<path class="st2" d="M412,161.8h19.9v82.7H412V161.8z"/>
		<path class="st2" d="M467.1,232.5l35.7-54.2h-32.2v-16.4h56.7v11.9l-35.7,54.1h36v16.7h-60.4V232.5z"/>
		<path class="st2" d="M584.5,225.5H560l-4.8,19H535l25.7-82.7h23.8l25.7,82.7h-20.9L584.5,225.5z M580.7,210.1l-1.8-7
			c-2.2-8.2-4.3-18.1-6.6-26.6h-0.4c-2,8.7-4.2,18.3-6.3,26.6l-1.8,7H580.7z"/>
		<path class="st2" d="M637.9,178.2h-22.3v-16.4h64.7v16.4h-22.4v66.2h-19.9V178.2z"/>
		<path class="st2" d="M713.3,161.8h19.9v82.7h-19.9V161.8z"/>
		<path class="st2" d="M760.6,202.7c0-27.1,15.3-42.4,37.9-42.4c22.6,0,37.9,15.4,37.9,42.4c0,27.1-15.3,43.3-37.9,43.3
			C776,246,760.6,229.8,760.6,202.7z M816.2,202.7c0-16-6.8-25.4-17.7-25.4c-10.9,0-17.6,9.4-17.6,25.4c0,16.1,6.7,26.2,17.6,26.2
			C809.4,228.9,816.2,218.8,816.2,202.7z"/>
		<path class="st2" d="M841,161.8h20.2l20.6,39.6l8.1,18.3h0.6c-1.1-8.8-2.7-20.7-2.7-30.6v-27.3h18.9v82.7h-20.2L866,204.6
			l-8.1-18.1h-0.6c0.9,9.2,2.6,20.6,2.6,30.6v27.4H841V161.8z"/>
	</g>
</g>
</svg>
