<?xml version="1.0" encoding="utf-8"?>
<!-- Generator: Adobe Illustrator 25.2.1, SVG Export Plug-In . SVG Version: 6.00 Build 0)  -->
<svg version="1.1" id="圖層_1" xmlns="http://www.w3.org/2000/svg" xmlns:xlink="http://www.w3.org/1999/xlink" x="0px" y="0px"
	 viewBox="0 0 623.6 283.5" style="enable-background:new 0 0 623.6 283.5;" xml:space="preserve">
<style type="text/css">
	.st0{fill:#B50005;}
</style>
<g>
	<g>
		<polygon class="st0" points="480.9,169.4 483.5,169.4 483.5,168.3 483.3,168.3 476.7,168.3 476.7,169.4 479.7,169.4 479.7,173.7 
			476.3,173.7 476.3,174.8 479.7,174.8 479.7,180.9 480.9,180.9 480.9,174.8 484,174.8 484,173.7 480.9,173.7 		"/>
	</g>
	<g>
		<g>
			<path class="st0" d="M472.4,172.9v2.3h-8.2c0-0.2,0-0.4,0-0.4v-1.9H472.4z M464.2,169.4h8.2v2.3h-8.2V169.4z M462.6,180.4
				c0.6-1.2,1.1-2.6,1.4-4.1h8.4v2.9c0,0,0,0.1,0,0.1c-0.1,0.1-0.7,0.2-2.8-0.2l-0.3-0.1v1.3l0.2,0c1,0.2,1.8,0.3,2.4,0.3
				c0.6,0,1.1-0.2,1.4-0.5c0.2-0.2,0.3-0.5,0.3-0.8v-10.8c0-0.2-0.2-0.4-0.5-0.5h-9.7c-0.3,0-0.5,0.2-0.5,0.4v5.8
				c0,1.6-0.5,3.5-1.5,5.6l-0.1,0.3l1.2,0.4L462.6,180.4z"/>
		</g>
		<g>
			<path class="st0" d="M140.2,138.7l4.5,25.6l0.4,2.1l2.1-0.4l6.4-1.1l2.2-0.4l-0.4-2.2l-4.6-26l-0.4-2.3l-2.2,0.5l-6.3,1.5l-2,0.5
				L140.2,138.7z"/>
			<path class="st0" d="M197,141h33.6h2.2v-2.2v-6.2v-2.2h-2.2h-72.3h-2.2v2.2v6.2v2.2h2.2h32.2l-2.2-2.2v33.6l2.2-2.2h-37h-2.2v2.2
				v6.7v2.2h2.2h81.2h2.2v-2.2v-6.7v-2.2h-2.2H197l2.2,2.2v-33.6L197,141z"/>
			<path class="st0" d="M288.5,148.9l-17,6.8l3,2v-43.2l-2.2,2.2h16.6h2.2v-2.2v-6.2v-2.2h-2.2h-16.6l2.2,2.2V70.6l-2.2,2.2h17.6
				h2.2v-2.2v-6.2v-2.2h-2.2h-41.4h-2.2v2.2v6.2v2.2h2.2h17.3l-2.2-2.2v37.6l2.2-2.2h-17.3h-2.2v2.2v6.2v2.2h2.2h17.3l-2.2-2.2v45.2
				l1.6-2.1l-17.7,5l-2.4,0.7l1,2.3l2.5,5.8l0.7,1.7l1.8-0.5c19.6-5,33.6-9.8,41.8-14.1l1.8-1l-0.8-1.9l-2.6-5.7l-0.9-1.9
				L288.5,148.9z"/>
			<path class="st0" d="M150.4,130.5l6.1-1.6l2.2-0.6l-0.6-2.1c-1.2-4.4-4.2-12.2-9.2-24.3l-0.8-1.9l-1.9,0.7l-6.1,2.1l-2.2,0.8
				l0.9,2.1l4.3,9.9l-0.2-0.9v0.5l2-2.2l-25.4,2.5l1.8,3.6c13.4-14.9,22.1-29.2,26.1-42.5l0.6-2.1l-2.1-0.6l-6.1-1.7l-2-0.6l-0.7,2
				c-2.2,6.7-5.6,13.7-10.3,21.2l3.3-0.5l-10.5-9.4l0.5,2.7c5.4-9.7,9.4-17.9,12-24.4l0.8-1.9l-1.9-0.9l-5.7-2.7l-2.1-1l-0.9,2.1
				c-3.4,8.5-7,16.2-10.7,22.8l3.1-0.8l-6.8-4.5l-1.9-1.2l-1.2,1.9l-3.3,5.3l-1.2,1.9l1.9,1.1c6.9,4.1,13.9,9.7,21.4,17.3l-0.2-2.8
				c-4.5,6.2-9,11.9-13.8,17.4l1.5-0.7l-7.4,0.6l-2.5,0.2l0.6,2.5l1.5,6.1l0.4,1.8l1.9-0.2l21.7-2.1l-2.4-2.2v59.7v2.2h2.2h6.4h2.2
				v-2.2v-60.2l-2,2.2l14.3-1.5l-2.3-1.5l2.3,7l0.6,2L150.4,130.5z"/>
			<path class="st0" d="M336.1,153.1h36.3h2.2v-2.2v-6.3v-2.2h-2.2h-36.3l2.2,2.2v-17.4V125h-2.2h-6.5h-2.2v2.2v17.4l2.2-2.2h-34.4
				h-2.2v2.2v6.3v2.2h2.2h34.4l-2.2-2.2v21.5l2.2-2.2h-41h-2.2v2.2v6.7v2.2h2.2h88.8h2.2v-2.2v-6.7v-2.2h-2.2h-41.3l2.2,2.2v-21.5
				L336.1,153.1z"/>
			<path class="st0" d="M465.9,100.7c-3.1-8.8-4.9-17.5-5.4-25.8c0,0.1,0-1.3,0-1.3c0,0.1,0.3-6.1,0.3-6.1c0-0.1,0-9.8,0-9.8v-2.2
				h-2.2h-8.6h-2.2v2.2v10.2c0,36.9-10.3,64.5-31.5,84.4c-7.4,7.5-16.7,12.5-27.2,17.8l-2.4,1.2l1.7,2.1l5.1,6.4l1.2,1.5l1.6-1
				c20.5-12.4,33-23,41.9-35.4c9.7-14.5,15.8-28.3,19.2-43.5l0.1-0.6l-0.2-0.6l-0.4-1.2l-4.2,1.3c5.5,21.1,18.4,41.1,40.5,63
				l0.1,0.1l0.1,0.1l19,16.3l1.3,1.2l1.4-1.1l7-5.4l2.2-1.7l-2.1-1.7C491.4,145.9,473.5,123.7,465.9,100.7z"/>
			<path class="st0" d="M227.3,79.1l-5.9-2.6l-2.3-1l-0.7,2.5c-2.1,7.7-5.2,14.1-9.4,19.6c-1.5,2-1.5,4.3,0.1,6
				c4,4.5,8.1,11.2,12.6,20.6l1,2.2l2.1-1.3l5.5-3.4l1.8-1.1l-1-1.8c-5.3-9.4-9.6-15.9-12.4-18.9c0.2,0.2,0.2,0.8,0,1.1c0,0,0,0,0,0
				l0.1-0.1l0.1-0.1c3.3-5.1,6.5-11.4,9.5-18.8l0.8-2L227.3,79.1z"/>
			<path class="st0" d="M101.4,174.9l6.2,1.7l1.9,0.5l0.7-1.9c5.3-14.5,8.5-26.5,9.8-36.6l0.2-2l-2-0.4l-6.4-1.3l-2.3-0.5l-0.3,2.3
				c-1.2,9.1-4.3,21-9.4,35.3l-0.8,2.2L101.4,174.9z"/>
			<path class="st0" d="M231.6,62.3H154h-2.2v2.2v6.1v2.2h2.2h77.6h2.2v-2.2v-6.1v-2.2H231.6z"/>
			<path class="st0" d="M202.4,79.6l-5.5-3.2l-2.1-1.2l-1,2.3c-3.4,8-7.3,14.5-12,19.8l0.1-0.1c-3,3,0.4,7.1,1.8,8.8
				c3.4,3.8,7.5,10.3,11.8,18.7l1.1,2.2l2-1.3l5.3-3.5l1.8-1.2l-1.1-1.8c-5.5-9-10-15.5-13.5-19.2l0.1,0.1c0.3,0.3,0.3,0.9,0,1.3
				l0,0l0-0.1c2.9-3.7,6.8-9.7,11.8-18.6l1.1-1.9L202.4,79.6z"/>
			<path class="st0" d="M175.2,79.2l-5.7-2.8l-2.2-1.1l-0.8,2.3c-2.9,8.3-6.5,15-10.7,20.2c-2.4,2.9,0.8,7.2,2,8.8
				c3.5,5,6.8,11.2,9.9,18.8l1,2.3l2.2-1.3l5.6-3.3l1.8-1l-0.9-1.8c-4.7-9.2-8.6-15.7-11.8-19.8c0.2,0.2,0.2,0.6,0.1,0.8
				c3.2-4.5,6.8-11,10.7-19.3l0.9-1.9L175.2,79.2z"/>
		</g>
		<g>
			<path class="st0" d="M362.3,81.3l19.8-23.4l-6.7-5.3l-22.3,20.9l-11.4-9.6l-1.5-1.3h-44.6v23l-4.8,4.3l4.8,4.4v36.4h76.7v-41
				l-2-1.7L362.3,81.3z M361.2,94.8v0.7h-11l4.9-5.8L361.2,94.8z M345,81.1l-7.2,6.8V75L345,81.1z M327.5,73.7v25.4l-0.7-0.4
				l-20.2-15.3v-9.7H327.5z M306.7,104.5l16.5,15.2h-16.5V104.5z M329.7,119.6l11.6-13.7l19.9,0v13.8H329.7z"/>
		</g>
		<g>
			<polygon class="st0" points="485.9,168.2 485.6,168.2 484.6,168.2 484.6,178 485.9,178 			"/>
		</g>
	</g>
	<g>
		<path class="st0" d="M489.1,167.6h-0.9v11.8c0,0,0,0,0,0c-0.3,0.2-1.1,0.2-2.8-0.2l-0.3-0.1v1.2l0.2,0.1c1.8,0.5,3,0.5,3.7,0
			c0.3-0.2,0.5-0.5,0.5-0.8v-12H489.1z"/>
	</g>
	<g>
		<g>
			<path class="st0" d="M106,220.7h2.6v-20.9H106v-0.6h8.7l3.9,13.4l3.8-13.4h8.3v0.6H128v20.9h2.6v0.6h-10.5v-0.6h2.6v-20.9
				l-6.3,21.5h-0.7l-6.5-21.5v20.9h2.6v0.6H106V220.7z"/>
			<path class="st0" d="M137.7,206l2.8,8.1h-5.6L137.7,206z M129.4,221.4h6.3v-0.6h-3.1l2.1-5.9h6l2,5.9h-2.7v0.6h10.4v-0.6h-1.9
				l-7.7-21.7h-1.2l-7.6,21.7h-2.5V221.4z"/>
			<path class="st0" d="M149.5,220.7h2.6v-20.9h-2.6v-0.6h8.5l8.6,14.1v-13.5H164v-0.6h5.9v0.6h-2.6v21.6h-1.9l-12.6-20.6v20h2.6
				v0.6h-5.9V220.7z"/>
			<path class="st0" d="M175.2,206l2.8,8.1h-5.6L175.2,206z M166.9,221.4h6.3v-0.6h-3.2l2.1-5.9h6l2,5.9h-2.8v0.6h10.4v-0.6h-1.9
				l-7.7-21.7h-1.2l-7.6,21.7h-2.5V221.4z"/>
			<path class="st0" d="M203,199.1h0.6l0.3,6.4h-0.6c-0.3-1.1-0.6-1.8-0.8-2.3c-0.2-0.5-0.8-1.2-1.6-2.3c-0.9-1.1-2.3-1.6-4.2-1.6
				c-1,0-1.8,0.2-2.6,0.7c-0.8,0.4-1.4,1.1-1.9,2.1c-0.5,1-0.7,3.7-0.7,8.2c0,2.3,0.1,4.1,0.2,5.3c0.1,1.2,0.4,2.5,0.9,3.7
				c0.4,1.3,1.6,1.9,3.5,1.9c1.1,0,1.9-0.3,2.4-1c0.5-0.6,0.8-1.7,0.8-3.1v-4.5h-2.6V212H207v0.6h-2.3v4.5c-0.3,0.4-0.5,0.7-0.7,1
				c-0.2,0.3-0.6,0.7-1.2,1.3c-0.6,0.6-1.5,1.2-2.7,1.7c-1.2,0.5-2.5,0.7-3.9,0.7c-3.3,0-5.9-1.2-7.7-3.6c-1.8-2.4-2.8-5-2.8-7.8
				c0-3.3,1-6,3.1-8.3c2-2.2,4.5-3.3,7.5-3.3c1.1,0,2.1,0.1,2.8,0.4c0.7,0.2,1.7,0.7,2.8,1.5L203,199.1z"/>
			<path class="st0" d="M206.4,220.7h2.7v-20.9h-2.7v-0.6h17.4l0.3,6.1h-0.6c-0.3-1.3-0.8-2.5-1.6-3.7c-0.8-1.2-2-1.7-3.6-1.7h-4
				v10.1h0.5c0.3,0,0.6,0,0.8,0c0.3,0,0.6-0.1,1.2-0.2c0.5-0.1,1-0.5,1.3-1c0.3-0.4,0.5-0.8,0.6-1.2c0.1-0.4,0.2-1.1,0.3-2h0.6v9.5
				H219c-0.1-0.8-0.2-1.4-0.3-1.9c-0.1-0.4-0.4-1-0.8-1.6c-0.4-0.7-1.4-1-2.9-1h-0.7v10.3h4.1c0.7,0,1.5-0.2,2.3-0.7
				c0.8-0.4,1.4-0.9,1.9-1.6c0.5-0.6,0.8-1.2,1-1.7c0.2-0.5,0.5-1.3,0.7-2.4h0.5l-0.3,7h-18.1V220.7z"/>
			<path class="st0" d="M233.1,199.8h3c1,0,1.8,0.4,2.3,1.1c0.5,0.8,0.8,2,0.8,3.8c0,1.6-0.3,2.8-0.9,3.5c-0.6,0.7-1.5,1.1-2.9,1.1
				h-2.4V199.8z M225.2,221.4h10.5v-0.6h-2.7V210h2c1,0,1.8,0.4,2.5,1c0.6,0.7,0.9,1.6,0.9,2.9l0.2,2.7c0,1.6,0.4,2.8,1.3,3.7
				c0.9,0.9,2.2,1.3,3.7,1.3c0.5,0,1,0,1.5-0.1c0.4-0.1,1-0.3,1.7-0.5l-0.2-0.5c-0.4,0.2-0.8,0.4-1,0.4c-0.6,0-1-0.2-1.2-0.7
				c-0.2-0.5-0.3-1.4-0.3-2.7c0-1.1-0.1-2.1-0.3-2.9c-0.2-0.8-0.5-1.5-1-2.1c-0.4-0.6-0.9-1.1-1.3-1.4c-0.5-0.3-1-0.5-1.5-0.7
				c-0.5-0.1-1.2-0.3-2.2-0.4c0.9-0.2,1.7-0.3,2.2-0.5c0.6-0.2,1.1-0.4,1.8-0.7c1-0.5,1.7-1.1,2.1-1.8c0.4-0.7,0.6-1.5,0.6-2.6
				c0-1.6-0.6-2.8-1.9-3.7c-1.2-0.9-3-1.3-5.2-1.3h-12.2v0.6h2.7v20.9h-2.7V221.4z"/>
		</g>
		<g>
			<path class="st0" d="M253.1,208c1-0.6,1.7-1,2.2-1.5c0.5-0.4,0.9-0.8,1.1-1.1c0.3-0.3,0.5-0.6,0.8-0.9c0.3-0.3,0.5-0.6,0.7-1
				c0.2-0.3,0.5-0.8,0.8-1.3h0.6v5.7h2.6v0.6h-2.6v9.5c0,1.3,0.4,1.9,1.3,1.9c0.8,0,1.4-0.7,2-2.1l0.6,0.2c-0.3,0.8-0.5,1.3-0.8,1.7
				c-0.3,0.4-0.7,0.7-1.3,1.1c-0.6,0.3-1.5,0.5-2.7,0.5c-2.4,0-3.6-1-3.6-2.9v-9.9h-1.8V208z"/>
			<path class="st0" d="M267.4,213.9c0-2.4,0.2-4,0.5-4.7c0.3-0.8,1.1-1.1,2.1-1.1c1,0,1.6,0.3,1.8,1c0.2,0.7,0.4,1.4,0.5,2.1
				c0.1,0.7,0.1,1.8,0.1,3.2c0,1.3,0,2.4-0.1,3.3c-0.1,0.9-0.2,1.7-0.4,2.3c-0.2,0.7-0.9,1-2,1c-1.1,0-1.8-0.3-2-1
				c-0.2-0.7-0.3-1.3-0.4-2c-0.1-0.7-0.1-1.9-0.1-3.5V213.9z M264.7,209.5c-1.4,1.3-2.1,3-2.1,5c0,1.9,0.7,3.6,2.1,4.9
				c1.4,1.4,3.1,2,5.1,2c2,0,3.7-0.7,5.1-2c1.4-1.4,2.1-3,2.1-4.9c0-1.9-0.7-3.6-2.1-4.9c-1.4-1.4-3.1-2-5.1-2
				C267.9,207.5,266.2,208.2,264.7,209.5z"/>
			<path class="st0" d="M287.9,217.4c-0.1,0.3-0.2,0.7-0.5,1.2c-0.2,0.5-0.6,1-1,1.3c-0.5,0.4-0.9,0.6-1.4,0.6
				c-0.5,0-0.9-0.2-1.3-0.6c-0.3-0.4-0.5-0.8-0.6-1.1c-0.1-0.4-0.1-0.9-0.1-1.7v-0.7v-4.2c0-0.2,0-0.4,0-0.7c0-0.3,0.1-0.7,0.1-1.1
				c0.1-0.5,0.4-1,0.8-1.3c0.4-0.4,0.8-0.6,1.1-0.6c0.5,0,0.9,0.3,1.4,0.8c0.5,0.5,0.8,1,1.1,1.6c0.2,0.6,0.4,1.1,0.4,1.6v3.7
				C288,216.8,287.9,217.1,287.9,217.4z M288,210.1c-0.6-0.9-1.2-1.5-1.8-1.9c-0.6-0.3-1.3-0.5-2.1-0.5c-1.7,0-3.1,0.7-4.3,2.1
				c-1.2,1.4-1.8,3.1-1.8,5.1c0,1.9,0.6,3.4,1.7,4.7c1.1,1.3,2.5,1.9,4.2,1.9c1.6,0,2.6-0.3,3-0.9c0.4-0.6,0.7-1,0.8-1.2
				c0.1-0.2,0.2-0.4,0.3-0.6v2.3h6.3v-0.6h-2v-21.6h-6.5v0.6h2V210.1z"/>
			<path class="st0" d="M302.7,217.1c0,0.7-0.2,1.3-0.6,1.9c-0.4,0.5-0.8,0.8-1.4,0.8c-0.5,0-0.9-0.2-1.2-0.7
				c-0.3-0.5-0.4-1.1-0.4-2c0-0.7,0.1-1.3,0.5-1.8c0.2-0.3,0.6-0.6,1.1-0.8c0.5-0.2,1.2-0.3,2-0.3V217.1z M302.7,213.6l-0.9,0.1
				c-1.1,0.2-2,0.3-2.5,0.4c-0.5,0.1-1.2,0.3-1.9,0.6c-0.7,0.3-1.3,0.6-1.7,1c-0.4,0.3-0.6,0.7-0.8,1.2c-0.2,0.4-0.2,0.9-0.2,1.3
				c0,1,0.3,1.7,1,2.4c0.7,0.6,1.5,0.9,2.6,0.9c0.9,0,1.7-0.2,2.5-0.7c0.6-0.3,1.3-0.9,1.9-1.7c0.3,0.9,0.7,1.5,1.2,1.9
				c0.5,0.4,1.2,0.6,2.1,0.6c1.2,0,2-0.3,2.7-1l0.5-0.6l-0.2-0.4c-0.4,0.4-0.7,0.5-1,0.5c-0.4,0-0.6-0.2-0.6-0.6v-0.7v-7.8
				c0-2-1.8-3-5.5-3c-1.9,0-3.4,0.3-4.5,0.9c-1.1,0.6-1.7,1.5-1.7,2.5c0,0.5,0.2,1,0.6,1.3c0.4,0.3,0.9,0.5,1.5,0.5
				c0.6,0,1.1-0.2,1.5-0.6c0.4-0.4,0.6-0.9,0.6-1.4c0-0.4-0.1-0.7-0.3-1c-0.2-0.3-0.4-0.4-0.4-0.5c0-0.1,0-0.1-0.1-0.2
				c0-0.3,0.2-0.5,0.6-0.7c0.4-0.2,0.9-0.3,1.4-0.3c0.6,0,1.1,0.1,1.3,0.5c0.2,0.3,0.4,0.8,0.4,1.6V213.6z"/>
			<path class="st0" d="M307.5,208h8.5v0.6h-2l3.3,7.6l2.9-7.6h-2.6V208h5.2v0.6h-1.9l-7.4,18.6c-1,2.4-2.1,3.5-3.5,3.5
				c-0.6,0-1.1-0.2-1.6-0.6c-0.4-0.4-0.6-0.9-0.6-1.5c0-0.6,0.2-1.1,0.6-1.5c0.4-0.5,0.9-0.7,1.5-0.7c0.4,0,0.7,0.1,0.8,0.2
				c0.2,0.1,0.4,0.3,0.6,0.6c0.2,0.3,0.3,0.4,0.4,0.5c0,0,0.1,0.1,0.2,0.1c0.2,0,0.3-0.1,0.5-0.4c0.2-0.2,0.3-0.6,0.5-1l2-5.2
				l-6-12.7h-1.5V208z"/>
		</g>
	</g>
</g>
</svg>
